<svg width="29" height="29" viewBox="0 0 29 29" fill="none" xmlns="http://www.w3.org/2000/svg">
<path d="M24.3277 19.8328C25.2555 17.9513 25.6046 15.8369 25.3308 13.7571C25.0569 11.6772 24.1725 9.72524 22.7893 8.14803C21.4062 6.57081 19.5863 5.43917 17.56 4.89622C15.5337 4.35326 13.3918 4.42338 11.4054 5.0977C9.41888 5.77202 7.67697 7.02025 6.3999 8.68456C5.12284 10.3489 4.36798 12.3545 4.23077 14.4478C4.09357 16.5411 4.58019 18.6281 5.62909 20.4449" stroke="#7E8CA0" stroke-width="1.5" stroke-linecap="round"/>
<path d="M15.0001 16.0001C16.6569 16.0001 18.0001 14.6569 18.0001 13.0001C18.0001 11.3432 16.6569 10.0001 15.0001 10.0001C13.3432 10.0001 12.0001 11.3432 12.0001 13.0001C12.0001 14.6569 13.3432 16.0001 15.0001 16.0001Z" stroke="#7E8CA0" stroke-width="1.5" stroke-linecap="round" stroke-linejoin="round"/>
<path d="M21.9998 26.0001C21.9998 22.135 18.8673 19.0001 14.9998 19.0001C11.1323 19.0001 7.99982 22.135 7.99982 26.0001" stroke="#7E8CA0" stroke-width="1.5" stroke-linecap="round" stroke-linejoin="round"/>
</svg>
